<svg width="10" height="11" viewBox="0 0 10 11" fill="none" xmlns="http://www.w3.org/2000/svg">
<path d="M9 9.42857V4.57143C9 4.48272 8.98193 4.39522 8.94721 4.31588C8.9125 4.23653 8.8621 4.16751 8.8 4.11429L5.3 1.11429C5.21345 1.0401 5.10819 1 5 1C4.89181 1 4.78655 1.0401 4.7 1.11429L1.2 4.11429C1.1379 4.16751 1.0875 4.23653 1.05279 4.31588C1.01807 4.39522 1 4.48272 1 4.57143V9.42857C1 9.58012 1.05268 9.72547 1.14645 9.83263C1.24021 9.9398 1.36739 10 1.5 10H3.5C3.63261 10 3.75979 9.9398 3.85355 9.83263C3.94732 9.72547 4 9.58012 4 9.42857V7.71429C4 7.56273 4.05268 7.41739 4.14645 7.31023C4.24021 7.20306 4.36739 7.14286 4.5 7.14286H5.5C5.63261 7.14286 5.75979 7.20306 5.85355 7.31023C5.94732 7.41739 6 7.56273 6 7.71429V9.42857C6 9.58012 6.05268 9.72547 6.14645 9.83263C6.24021 9.9398 6.36739 10 6.5 10H8.5C8.63261 10 8.75979 9.9398 8.85355 9.83263C8.94732 9.72547 9 9.58012 9 9.42857Z" stroke="white" stroke-linecap="round" stroke-linejoin="round"/>
</svg>
